<mxfile host="Electron" modified="2023-10-10T18:46:54.437Z" agent="Mozilla/5.0 (X11; Linux x86_64) AppleWebKit/537.36 (KHTML, like Gecko) draw.io/22.0.2 Chrome/114.0.5735.289 Electron/25.8.4 Safari/537.36" etag="EnveAxvP00ffu8i_3xra" version="22.0.2" type="device">
  <diagram name="Page-1" id="Nv8vaJcM4QDIebQTit32">
    <mxGraphModel dx="1434" dy="781" grid="1" gridSize="10" guides="1" tooltips="1" connect="1" arrows="1" fold="1" page="1" pageScale="1" pageWidth="827" pageHeight="1169" math="0" shadow="0">
      <root>
        <mxCell id="0" />
        <mxCell id="1" parent="0" />
        <mxCell id="jsPVeI7ytuAK9CtYSdAV-1" value="Login" style="ellipse;whiteSpace=wrap;html=1;" parent="1" vertex="1">
          <mxGeometry x="250" y="396" width="170" height="140" as="geometry" />
        </mxCell>
        <mxCell id="jsPVeI7ytuAK9CtYSdAV-3" value="" style="edgeStyle=none;orthogonalLoop=1;jettySize=auto;html=1;rounded=0;entryX=0;entryY=0;entryDx=0;entryDy=0;" parent="1" target="jsPVeI7ytuAK9CtYSdAV-1" edge="1">
          <mxGeometry width="100" relative="1" as="geometry">
            <mxPoint x="60" y="326" as="sourcePoint" />
            <mxPoint x="210" y="396" as="targetPoint" />
            <Array as="points">
              <mxPoint x="220" y="326" />
            </Array>
          </mxGeometry>
        </mxCell>
        <mxCell id="jsPVeI7ytuAK9CtYSdAV-4" value="" style="edgeStyle=none;orthogonalLoop=1;jettySize=auto;html=1;rounded=0;exitX=0;exitY=1;exitDx=0;exitDy=0;" parent="1" source="jsPVeI7ytuAK9CtYSdAV-1" edge="1">
          <mxGeometry width="100" relative="1" as="geometry">
            <mxPoint x="100" y="486" as="sourcePoint" />
            <mxPoint x="60" y="606" as="targetPoint" />
            <Array as="points">
              <mxPoint x="220" y="606" />
            </Array>
          </mxGeometry>
        </mxCell>
        <mxCell id="jsPVeI7ytuAK9CtYSdAV-10" value="" style="edgeStyle=none;orthogonalLoop=1;jettySize=auto;html=1;rounded=0;exitX=1;exitY=0;exitDx=0;exitDy=0;entryX=0;entryY=0.254;entryDx=0;entryDy=0;entryPerimeter=0;" parent="1" source="jsPVeI7ytuAK9CtYSdAV-1" target="D86sx7wyspa-cqtISMKc-4" edge="1">
          <mxGeometry width="100" relative="1" as="geometry">
            <mxPoint x="430" y="407" as="sourcePoint" />
            <mxPoint x="560" y="417" as="targetPoint" />
            <Array as="points" />
          </mxGeometry>
        </mxCell>
        <mxCell id="jsPVeI7ytuAK9CtYSdAV-11" value="" style="edgeStyle=none;orthogonalLoop=1;jettySize=auto;html=1;rounded=0;exitX=0.935;exitY=0.757;exitDx=0;exitDy=0;exitPerimeter=0;entryX=0;entryY=0.232;entryDx=0;entryDy=0;entryPerimeter=0;" parent="1" source="jsPVeI7ytuAK9CtYSdAV-1" target="D86sx7wyspa-cqtISMKc-6" edge="1">
          <mxGeometry width="100" relative="1" as="geometry">
            <mxPoint x="560" y="606" as="sourcePoint" />
            <mxPoint x="550" y="610" as="targetPoint" />
            <Array as="points" />
          </mxGeometry>
        </mxCell>
        <mxCell id="jsPVeI7ytuAK9CtYSdAV-12" value="Login&lt;br&gt;Request" style="text;html=1;align=center;verticalAlign=middle;resizable=0;points=[];autosize=1;strokeColor=none;fillColor=none;" parent="1" vertex="1">
          <mxGeometry x="110" y="288" width="70" height="40" as="geometry" />
        </mxCell>
        <mxCell id="jsPVeI7ytuAK9CtYSdAV-13" value="Invalid&lt;br&gt;Login" style="text;html=1;align=center;verticalAlign=middle;resizable=0;points=[];autosize=1;strokeColor=none;fillColor=none;" parent="1" vertex="1">
          <mxGeometry x="120" y="566" width="60" height="40" as="geometry" />
        </mxCell>
        <mxCell id="jsPVeI7ytuAK9CtYSdAV-14" value="Logout" style="text;html=1;align=center;verticalAlign=middle;resizable=0;points=[];autosize=1;strokeColor=none;fillColor=none;" parent="1" vertex="1">
          <mxGeometry x="410" y="576" width="60" height="30" as="geometry" />
        </mxCell>
        <mxCell id="jsPVeI7ytuAK9CtYSdAV-17" value="Login" style="text;html=1;align=center;verticalAlign=middle;resizable=0;points=[];autosize=1;strokeColor=none;fillColor=none;" parent="1" vertex="1">
          <mxGeometry x="457" y="390" width="50" height="30" as="geometry" />
        </mxCell>
        <mxCell id="jsPVeI7ytuAK9CtYSdAV-18" value="0. 1" style="text;html=1;align=center;verticalAlign=middle;resizable=0;points=[];autosize=1;strokeColor=none;fillColor=none;" parent="1" vertex="1">
          <mxGeometry x="315" y="504" width="40" height="30" as="geometry" />
        </mxCell>
        <mxCell id="zB5RQNQVIBqfSYqidaWU-4" value="" style="edgeStyle=none;orthogonalLoop=1;jettySize=auto;html=1;rounded=0;exitX=0;exitY=0;exitDx=0;exitDy=52.5;exitPerimeter=0;entryX=0.776;entryY=0.929;entryDx=0;entryDy=0;entryPerimeter=0;" parent="1" source="D86sx7wyspa-cqtISMKc-6" target="jsPVeI7ytuAK9CtYSdAV-1" edge="1">
          <mxGeometry width="100" relative="1" as="geometry">
            <mxPoint x="560.98" y="650" as="sourcePoint" />
            <mxPoint x="390" y="536" as="targetPoint" />
            <Array as="points" />
          </mxGeometry>
        </mxCell>
        <mxCell id="zB5RQNQVIBqfSYqidaWU-6" value="" style="edgeStyle=none;orthogonalLoop=1;jettySize=auto;html=1;rounded=0;exitX=0;exitY=0;exitDx=0;exitDy=52.5;exitPerimeter=0;entryX=0.994;entryY=0.414;entryDx=0;entryDy=0;entryPerimeter=0;" parent="1" target="jsPVeI7ytuAK9CtYSdAV-1" edge="1" source="D86sx7wyspa-cqtISMKc-4">
          <mxGeometry width="100" relative="1" as="geometry">
            <mxPoint x="560" y="460" as="sourcePoint" />
            <mxPoint x="440" y="452" as="targetPoint" />
            <Array as="points" />
          </mxGeometry>
        </mxCell>
        <mxCell id="wiPIHEhx2NYUw8NA-F7D-1" value="Database" style="shape=partialRectangle;whiteSpace=wrap;html=1;left=0;right=0;fillColor=none;" parent="1" vertex="1">
          <mxGeometry x="250" y="156" width="180" height="55" as="geometry" />
        </mxCell>
        <mxCell id="wiPIHEhx2NYUw8NA-F7D-2" value="" style="edgeStyle=none;orthogonalLoop=1;jettySize=auto;html=1;rounded=0;entryX=0.378;entryY=1.022;entryDx=0;entryDy=0;entryPerimeter=0;exitX=0.4;exitY=0;exitDx=0;exitDy=0;exitPerimeter=0;" parent="1" source="jsPVeI7ytuAK9CtYSdAV-1" target="wiPIHEhx2NYUw8NA-F7D-1" edge="1">
          <mxGeometry width="100" relative="1" as="geometry">
            <mxPoint x="295" y="376" as="sourcePoint" />
            <mxPoint x="320" y="236" as="targetPoint" />
            <Array as="points" />
          </mxGeometry>
        </mxCell>
        <mxCell id="wiPIHEhx2NYUw8NA-F7D-3" value="" style="edgeStyle=none;orthogonalLoop=1;jettySize=auto;html=1;rounded=0;exitX=0.594;exitY=1.067;exitDx=0;exitDy=0;exitPerimeter=0;entryX=0.635;entryY=0.014;entryDx=0;entryDy=0;entryPerimeter=0;" parent="1" source="wiPIHEhx2NYUw8NA-F7D-1" target="jsPVeI7ytuAK9CtYSdAV-1" edge="1">
          <mxGeometry width="100" relative="1" as="geometry">
            <mxPoint x="320" y="316" as="sourcePoint" />
            <mxPoint x="370" y="386" as="targetPoint" />
            <Array as="points" />
          </mxGeometry>
        </mxCell>
        <mxCell id="wiPIHEhx2NYUw8NA-F7D-4" value="Data&lt;br&gt;Request" style="text;html=1;align=center;verticalAlign=middle;resizable=0;points=[];autosize=1;strokeColor=none;fillColor=none;" parent="1" vertex="1">
          <mxGeometry x="253" y="246" width="70" height="40" as="geometry" />
        </mxCell>
        <mxCell id="wiPIHEhx2NYUw8NA-F7D-5" value="Data&lt;br&gt;Response" style="text;html=1;align=center;verticalAlign=middle;resizable=0;points=[];autosize=1;strokeColor=none;fillColor=none;" parent="1" vertex="1">
          <mxGeometry x="350" y="247" width="80" height="40" as="geometry" />
        </mxCell>
        <mxCell id="wiPIHEhx2NYUw8NA-F7D-7" value="" style="edgeStyle=none;orthogonalLoop=1;jettySize=auto;html=1;rounded=0;exitX=1;exitY=0.25;exitDx=0;exitDy=0;" parent="1" source="wiPIHEhx2NYUw8NA-F7D-1" edge="1">
          <mxGeometry width="100" relative="1" as="geometry">
            <mxPoint x="440" y="236" as="sourcePoint" />
            <mxPoint x="570" y="170" as="targetPoint" />
            <Array as="points" />
          </mxGeometry>
        </mxCell>
        <mxCell id="wiPIHEhx2NYUw8NA-F7D-8" value="" style="edgeStyle=none;orthogonalLoop=1;jettySize=auto;html=1;rounded=0;entryX=0.989;entryY=0.873;entryDx=0;entryDy=0;entryPerimeter=0;exitX=0;exitY=0;exitDx=0;exitDy=56;exitPerimeter=0;" parent="1" source="D86sx7wyspa-cqtISMKc-1" target="wiPIHEhx2NYUw8NA-F7D-1" edge="1">
          <mxGeometry width="100" relative="1" as="geometry">
            <mxPoint x="563.06" y="206" as="sourcePoint" />
            <mxPoint x="460" y="196" as="targetPoint" />
            <Array as="points" />
          </mxGeometry>
        </mxCell>
        <mxCell id="wiPIHEhx2NYUw8NA-F7D-12" value="Login" style="text;html=1;align=center;verticalAlign=middle;resizable=0;points=[];autosize=1;strokeColor=none;fillColor=none;" parent="1" vertex="1">
          <mxGeometry x="472" y="526" width="50" height="30" as="geometry" />
        </mxCell>
        <mxCell id="wiPIHEhx2NYUw8NA-F7D-13" value="Logout" style="text;html=1;align=center;verticalAlign=middle;resizable=0;points=[];autosize=1;strokeColor=none;fillColor=none;" parent="1" vertex="1">
          <mxGeometry x="454" y="451" width="60" height="30" as="geometry" />
        </mxCell>
        <mxCell id="wiPIHEhx2NYUw8NA-F7D-14" value="Register complaint" style="text;html=1;align=center;verticalAlign=middle;resizable=0;points=[];autosize=1;strokeColor=none;fillColor=none;" parent="1" vertex="1">
          <mxGeometry x="437" y="142" width="120" height="30" as="geometry" />
        </mxCell>
        <mxCell id="wiPIHEhx2NYUw8NA-F7D-15" value="Track Complaint" style="text;html=1;align=center;verticalAlign=middle;resizable=0;points=[];autosize=1;strokeColor=none;fillColor=none;" parent="1" vertex="1">
          <mxGeometry x="442" y="203" width="110" height="30" as="geometry" />
        </mxCell>
        <mxCell id="wiPIHEhx2NYUw8NA-F7D-16" value="" style="edgeStyle=none;orthogonalLoop=1;jettySize=auto;html=1;rounded=0;entryX=1;entryY=0;entryDx=0;entryDy=0;" parent="1" target="D86sx7wyspa-cqtISMKc-1" edge="1">
          <mxGeometry width="100" relative="1" as="geometry">
            <mxPoint x="783.5" y="65.28" as="sourcePoint" />
            <mxPoint x="750" y="130" as="targetPoint" />
            <Array as="points" />
          </mxGeometry>
        </mxCell>
        <mxCell id="wiPIHEhx2NYUw8NA-F7D-17" value="Victim" style="text;html=1;align=center;verticalAlign=middle;resizable=0;points=[];autosize=1;strokeColor=none;fillColor=none;rotation=-45;" parent="1" vertex="1">
          <mxGeometry x="699" y="90" width="60" height="30" as="geometry" />
        </mxCell>
        <mxCell id="D86sx7wyspa-cqtISMKc-1" value="Complaint&lt;br&gt;Register Module" style="shape=module;align=left;spacingLeft=20;align=center;verticalAlign=top;whiteSpace=wrap;html=1;jettyWidth=14;jettyHeight=16;" vertex="1" parent="1">
          <mxGeometry x="569" y="149" width="141" height="69" as="geometry" />
        </mxCell>
        <mxCell id="D86sx7wyspa-cqtISMKc-2" value="0.4" style="text;html=1;align=center;verticalAlign=middle;resizable=0;points=[];autosize=1;strokeColor=none;fillColor=none;" vertex="1" parent="1">
          <mxGeometry x="620" y="189" width="40" height="30" as="geometry" />
        </mxCell>
        <mxCell id="D86sx7wyspa-cqtISMKc-4" value="Complaint&lt;br&gt;Response Module" style="shape=module;align=left;spacingLeft=20;align=center;verticalAlign=top;whiteSpace=wrap;html=1;jettyWidth=14;jettyHeight=15;" vertex="1" parent="1">
          <mxGeometry x="570" y="399" width="140" height="69" as="geometry" />
        </mxCell>
        <mxCell id="D86sx7wyspa-cqtISMKc-5" value="0.3" style="text;html=1;align=center;verticalAlign=middle;resizable=0;points=[];autosize=1;strokeColor=none;fillColor=none;" vertex="1" parent="1">
          <mxGeometry x="619" y="439" width="40" height="30" as="geometry" />
        </mxCell>
        <mxCell id="D86sx7wyspa-cqtISMKc-6" value="Squad&lt;br&gt;Management Module" style="shape=module;align=left;spacingLeft=20;align=center;verticalAlign=top;whiteSpace=wrap;html=1;jettyWidth=14;jettyHeight=15;" vertex="1" parent="1">
          <mxGeometry x="570" y="600" width="140" height="69" as="geometry" />
        </mxCell>
        <mxCell id="D86sx7wyspa-cqtISMKc-8" value="0.2" style="text;html=1;align=center;verticalAlign=middle;resizable=0;points=[];autosize=1;strokeColor=none;fillColor=none;" vertex="1" parent="1">
          <mxGeometry x="621" y="640" width="40" height="30" as="geometry" />
        </mxCell>
      </root>
    </mxGraphModel>
  </diagram>
</mxfile>
